<svg xmlns="http://www.w3.org/2000/svg" width="706pt" height="150pt" viewBox="0 0 706 150"><g id="#002147ff"><path fill="#002147" opacity="1.00" d=" M 79.31 8.42 C 96.10 -0.01 116.14 -1.58 134.09 3.90 C 151.25 9.05 166.28 20.75 175.67 35.99 C 167.92 40.49 160.17 44.98 152.39 49.42 C 147.30 52.42 140.99 53.05 135.32 51.47 C 131.98 50.55 129.29 48.25 126.23 46.74 C 122.12 44.70 117.56 43.59 112.98 43.50 C 90.33 43.47 67.68 43.57 45.03 43.45 C 52.12 28.39 64.35 15.77 79.31 8.42 Z"></path><path fill="#002147" opacity="1.00" d=" M 277.19 16.15 C 281.49 14.24 283.13 19.78 282.15 22.99 C 281.98 26.58 276.20 27.21 275.42 23.65 C 275.17 21.15 274.44 17.54 277.19 16.15 Z"></path><path fill="#002147" opacity="1.00" d=" M 348.30 16.39 C 350.42 14.78 353.71 16.46 353.74 19.07 C 353.75 21.00 354.17 23.25 352.93 24.91 C 351.19 27.15 347.04 25.93 346.89 23.05 C 346.67 20.85 346.24 17.89 348.30 16.39 Z"></path><path fill="#002147" opacity="1.00" d=" M 311.00 23.50 C 313.33 23.50 315.66 23.50 318.00 23.50 C 318.00 28.75 317.99 34.00 318.00 39.24 C 324.06 39.23 330.11 39.30 336.16 39.19 C 336.21 41.21 336.25 43.23 336.27 45.24 C 330.19 45.26 324.10 45.25 318.01 45.24 C 317.97 67.41 318.03 89.59 317.99 111.76 C 315.66 111.75 313.33 111.75 311.01 111.76 C 310.98 89.59 311.02 67.42 310.99 45.25 C 304.91 45.25 298.82 45.26 292.74 45.24 C 292.75 43.24 292.76 41.23 292.79 39.23 C 298.86 39.27 304.93 39.25 311.00 39.24 C 311.00 34.00 311.00 28.75 311.00 23.50 Z"></path><path fill="#002147" opacity="1.00" d=" M 202.07 58.08 C 207.20 47.35 218.23 39.87 230.06 38.90 C 242.15 37.45 255.75 41.37 262.61 52.04 C 260.81 53.35 259.02 54.67 257.23 55.98 C 248.06 42.86 227.57 41.77 215.73 51.78 C 201.61 63.73 202.10 88.98 217.02 100.08 C 228.95 109.02 248.45 107.57 257.24 94.89 C 259.03 96.21 260.81 97.53 262.60 98.85 C 258.73 104.47 253.01 108.76 246.43 110.63 C 233.84 114.29 219.04 111.91 209.42 102.62 C 197.43 91.58 195.11 72.44 202.07 58.08 Z"></path><path fill="#002147" opacity="1.00" d=" M 275.25 39.24 C 277.61 39.23 279.96 39.25 282.32 39.37 C 282.08 63.51 282.44 87.67 282.14 111.81 C 279.84 111.76 277.54 111.75 275.25 111.74 C 275.25 87.57 275.24 63.40 275.25 39.24 Z"></path><path fill="#002147" opacity="1.00" d=" M 346.76 39.25 C 349.08 39.25 351.42 39.25 353.75 39.25 C 353.75 63.42 353.75 87.58 353.75 111.75 C 351.42 111.75 349.09 111.75 346.76 111.76 C 346.74 87.59 346.75 63.42 346.76 39.25 Z"></path><path fill="#002147" opacity="1.00" d=" M 373.28 45.21 C 380.28 38.17 391.68 37.13 400.68 40.46 C 407.46 42.94 412.35 49.46 412.68 56.70 C 410.51 56.74 408.34 56.76 406.18 56.77 C 405.25 52.94 403.17 49.24 399.60 47.32 C 392.34 43.18 381.61 44.49 376.76 51.69 C 373.11 57.04 375.24 65.07 381.00 67.98 C 389.68 72.37 400.57 71.26 408.39 77.62 C 416.70 83.97 417.22 97.63 409.95 104.96 C 405.34 109.88 398.46 111.93 391.89 112.23 C 384.17 112.60 376.04 110.13 370.61 104.47 C 367.65 101.41 366.10 97.36 365.16 93.29 C 367.34 93.25 369.53 93.23 371.72 93.22 C 373.58 98.51 377.58 103.18 383.10 104.76 C 390.31 106.84 399.10 106.15 404.67 100.67 C 409.57 95.77 409.39 86.67 403.59 82.53 C 395.12 76.48 383.41 78.32 374.95 72.14 C 366.34 66.22 365.97 52.31 373.28 45.21 Z"></path><path fill="#002147" opacity="1.00" d=" M 449.96 39.43 C 459.34 37.63 469.62 38.89 477.57 44.46 C 488.13 51.53 493.29 64.83 492.28 77.25 C 471.56 77.27 450.84 77.20 430.12 77.29 C 430.46 84.75 433.36 92.13 438.75 97.39 C 450.82 109.15 472.83 108.59 483.84 95.61 C 485.20 97.21 486.57 98.81 487.95 100.40 C 482.61 107.05 474.40 110.92 466.02 111.90 C 454.12 113.54 441.17 110.10 432.81 101.18 C 422.45 90.37 420.64 73.42 425.93 59.80 C 429.97 49.62 439.19 41.63 449.96 39.43 M 440.79 50.76 C 434.56 55.63 431.07 63.23 430.20 70.99 C 448.61 71.00 467.02 71.02 485.44 70.98 C 484.86 64.69 482.42 58.56 478.16 53.85 C 469.10 43.23 451.53 42.04 440.79 50.76 Z"></path><path fill="#002147" opacity="1.00" d=" M 503.53 39.23 C 505.76 39.24 508.00 39.25 510.24 39.25 C 510.24 44.25 510.30 49.24 510.18 54.24 C 514.29 46.41 522.10 40.78 530.82 39.34 C 540.17 37.85 550.73 38.49 558.38 44.66 C 565.33 50.20 568.20 59.39 568.25 68.02 C 568.25 82.59 568.26 97.17 568.24 111.75 C 565.82 111.75 563.42 111.75 561.01 111.76 C 560.97 97.14 561.02 82.52 560.99 67.90 C 560.85 61.43 558.73 54.59 553.65 50.29 C 548.61 45.84 541.50 44.74 535.00 45.25 C 527.65 45.65 520.31 49.03 515.86 55.01 C 511.95 60.10 510.58 66.66 510.50 72.97 C 510.48 85.90 510.53 98.84 510.49 111.77 C 508.14 111.76 505.80 111.74 503.47 111.70 C 503.56 87.54 503.44 63.39 503.53 39.23 Z"></path><path fill="#002147" opacity="1.00" d=" M 586.78 44.79 C 593.58 38.24 604.27 37.34 612.94 40.17 C 620.07 42.47 625.41 49.19 625.71 56.73 C 623.53 56.75 621.35 56.76 619.17 56.76 C 618.24 52.94 616.22 49.25 612.64 47.34 C 605.37 43.17 594.62 44.48 589.75 51.70 C 586.15 57.04 588.25 65.06 593.99 67.97 C 602.68 72.40 613.64 71.23 621.44 77.66 C 630.15 84.32 630.17 98.86 621.97 105.94 C 614.36 112.67 602.90 113.66 593.50 110.65 C 585.66 108.22 579.49 101.44 578.16 93.29 C 580.34 93.26 582.53 93.23 584.72 93.22 C 586.57 98.50 590.55 103.15 596.05 104.75 C 603.07 106.79 611.51 106.18 617.18 101.17 C 622.56 96.36 622.66 86.73 616.53 82.48 C 608.03 76.47 596.29 78.33 587.86 72.07 C 579.20 65.95 578.97 51.70 586.78 44.79 Z"></path><path fill="#002147" opacity="1.00" d=" M 647.29 48.24 C 659.80 35.57 682.49 35.40 695.28 47.74 C 701.75 53.92 705.28 62.67 706.00 71.51 L 706.00 77.25 C 685.22 77.25 664.45 77.25 643.67 77.25 C 644.22 83.78 646.18 90.41 650.59 95.40 C 661.99 109.13 685.90 109.34 697.40 95.62 C 698.81 97.22 700.23 98.82 701.67 100.42 C 692.48 111.47 676.51 114.36 663.08 110.91 C 652.31 108.24 643.12 100.07 639.21 89.69 C 634.19 75.88 636.49 58.74 647.29 48.24 M 654.57 50.64 C 648.26 55.48 644.72 63.20 643.86 70.99 C 662.28 71.01 680.70 71.00 699.12 71.00 C 698.25 61.22 692.43 51.86 683.48 47.58 C 674.28 43.24 662.59 44.27 654.57 50.64 Z"></path><path fill="#002147" opacity="1.00" d=" M 135.33 98.53 C 140.75 97.04 146.78 97.49 151.73 100.24 C 159.75 104.73 167.68 109.40 175.65 113.99 C 167.14 127.86 153.95 138.82 138.70 144.53 C 122.20 150.78 103.45 150.91 86.89 144.83 C 68.60 138.27 53.25 124.14 45.04 106.54 C 67.69 106.44 90.34 106.53 112.99 106.50 C 117.60 106.41 122.19 105.28 126.31 103.22 C 129.34 101.71 132.01 99.44 135.33 98.53 Z"></path></g><g id="#ffb300ff"><path fill="#ffb300" opacity="1.00" d=" M 0.00 48.77 C 1.80 46.17 5.20 46.49 7.94 47.00 C 10.68 47.91 10.75 52.51 7.87 53.31 C 5.91 53.59 3.92 53.53 1.94 53.59 C 1.46 53.05 0.49 51.97 0.00 51.42 L 0.00 48.77 Z"></path><path fill="#ffb300" opacity="1.00" d=" M 13.34 47.53 C 14.62 46.46 16.43 46.85 17.96 46.73 C 49.98 46.80 82.01 46.71 114.03 46.77 C 116.55 46.35 118.65 49.34 117.45 51.56 C 116.90 53.50 114.66 53.58 113.01 53.52 C 80.34 53.45 47.67 53.57 15.00 53.45 C 12.08 53.54 11.16 49.05 13.34 47.53 Z"></path></g><g id="#9acd32ff"><path fill="#9acd32" opacity="1.00" d=" M 34.18 57.16 C 36.90 56.31 42.05 56.02 42.30 59.95 C 42.64 64.02 37.71 63.83 34.94 63.42 C 31.77 63.17 31.31 58.29 34.18 57.16 Z"></path><path fill="#9acd32" opacity="1.00" d=" M 46.16 57.14 C 47.74 56.63 49.43 56.77 51.06 56.73 C 63.05 56.77 75.03 56.75 87.02 56.74 C 88.64 56.81 90.72 56.63 91.76 58.18 C 93.21 60.24 91.72 63.83 88.99 63.48 C 75.01 63.46 61.02 63.62 47.04 63.41 C 43.97 63.03 43.57 58.47 46.16 57.14 Z"></path></g><g id="#00cc99ff"><path fill="#00cc99" opacity="1.00" d=" M 21.30 67.31 C 23.34 66.42 25.74 66.57 27.84 67.14 C 30.34 68.30 30.29 72.05 27.94 73.36 C 25.98 73.61 23.98 73.62 22.01 73.41 C 19.14 73.02 18.87 68.44 21.30 67.31 Z"></path><path fill="#00cc99" opacity="1.00" d=" M 33.35 67.28 C 35.13 66.56 37.11 66.79 38.99 66.73 C 54.33 66.84 69.69 66.62 85.03 66.83 C 88.80 66.66 89.36 73.15 85.59 73.46 C 68.75 73.56 51.91 73.48 35.07 73.50 C 31.73 73.90 30.55 68.82 33.35 67.28 Z"></path></g><g id="#00b7ebff"><path fill="#00b7eb" opacity="1.00" d=" M 5.95 76.99 C 8.00 77.00 10.04 76.90 12.08 77.08 C 15.09 77.91 14.94 82.80 11.91 83.45 C 9.39 83.99 5.78 84.32 4.42 81.57 C 3.68 79.80 4.81 78.22 5.95 76.99 Z"></path><path fill="#00b7eb" opacity="1.00" d=" M 18.16 77.19 C 40.46 76.76 62.81 77.10 85.13 77.02 C 87.46 76.83 88.91 79.92 87.85 81.82 C 87.09 83.74 84.78 83.68 83.07 83.76 C 62.06 83.71 41.05 83.81 20.05 83.71 C 16.46 84.18 15.02 78.75 18.16 77.19 Z"></path></g><g id="#007fffff"><path fill="#007fff" opacity="1.00" d=" M 29.25 87.34 C 31.36 86.69 33.66 86.92 35.81 87.19 C 38.23 88.35 38.18 92.60 35.52 93.44 C 33.73 93.96 31.80 93.86 29.98 93.59 C 27.23 92.91 26.51 88.52 29.25 87.34 Z"></path><path fill="#007fff" opacity="1.00" d=" M 41.33 87.45 C 42.73 86.64 44.46 87.13 46.01 86.98 C 60.37 87.04 74.73 86.96 89.10 87.01 C 91.21 86.78 92.75 89.13 92.22 91.07 C 92.12 93.07 89.78 93.83 88.08 93.74 C 73.09 93.73 58.08 93.83 43.09 93.69 C 39.78 93.89 38.39 88.97 41.33 87.45 Z"></path></g><g id="#6a5acdff"><path fill="#6a5acd" opacity="1.00" d=" M 14.00 99.93 C 14.47 95.96 19.35 97.16 22.14 96.94 C 24.22 98.39 24.98 102.07 22.29 103.30 C 19.38 104.41 13.72 104.23 14.00 99.93 Z"></path><path fill="#6a5acd" opacity="1.00" d=" M 27.96 97.00 C 56.31 96.99 84.65 97.01 112.99 96.99 C 114.67 97.01 117.01 97.24 117.59 99.15 C 118.53 101.47 116.42 104.02 113.98 103.73 C 85.69 103.72 57.40 103.85 29.11 103.67 C 25.63 103.42 25.42 98.69 27.96 97.00 Z"></path></g></svg>